<mxfile host="app.diagrams.net" agent="Mozilla/5.0 (X11; Linux x86_64) AppleWebKit/537.36 (KHTML, like Gecko) Chrome/136.0.0.0 Safari/537.36" version="26.3.0">
  <diagram name="Page-1" id="gSoHUhWKgJWJ4074Cdrg">
    <mxGraphModel dx="1143" dy="731" grid="1" gridSize="10" guides="1" tooltips="1" connect="1" arrows="1" fold="1" page="1" pageScale="1" pageWidth="850" pageHeight="1100" math="0" shadow="0">
      <root>
        <mxCell id="0" />
        <mxCell id="1" parent="0" />
        <mxCell id="X4x291_GErJNzQLrtJfZ-6" style="edgeStyle=orthogonalEdgeStyle;rounded=0;orthogonalLoop=1;jettySize=auto;html=1;exitX=1;exitY=0.25;exitDx=0;exitDy=0;entryX=0;entryY=0.25;entryDx=0;entryDy=0;" edge="1" parent="1" source="X4x291_GErJNzQLrtJfZ-1" target="X4x291_GErJNzQLrtJfZ-2">
          <mxGeometry relative="1" as="geometry" />
        </mxCell>
        <mxCell id="X4x291_GErJNzQLrtJfZ-11" value="ROS topics" style="edgeLabel;html=1;align=center;verticalAlign=middle;resizable=0;points=[];" vertex="1" connectable="0" parent="X4x291_GErJNzQLrtJfZ-6">
          <mxGeometry x="-0.0549" y="2" relative="1" as="geometry">
            <mxPoint y="17" as="offset" />
          </mxGeometry>
        </mxCell>
        <mxCell id="X4x291_GErJNzQLrtJfZ-1" value="Operation PC&lt;br&gt;Running drone software" style="rounded=0;whiteSpace=wrap;html=1;" vertex="1" parent="1">
          <mxGeometry x="165" y="310" width="130" height="60" as="geometry" />
        </mxCell>
        <mxCell id="X4x291_GErJNzQLrtJfZ-7" style="edgeStyle=orthogonalEdgeStyle;rounded=0;orthogonalLoop=1;jettySize=auto;html=1;exitX=1;exitY=0.25;exitDx=0;exitDy=0;entryX=0;entryY=0.25;entryDx=0;entryDy=0;" edge="1" parent="1" source="X4x291_GErJNzQLrtJfZ-2" target="X4x291_GErJNzQLrtJfZ-4">
          <mxGeometry relative="1" as="geometry" />
        </mxCell>
        <mxCell id="X4x291_GErJNzQLrtJfZ-10" value="Serial Uorb" style="edgeLabel;html=1;align=center;verticalAlign=middle;resizable=0;points=[];" vertex="1" connectable="0" parent="X4x291_GErJNzQLrtJfZ-7">
          <mxGeometry x="-0.1771" y="2" relative="1" as="geometry">
            <mxPoint x="4" y="17" as="offset" />
          </mxGeometry>
        </mxCell>
        <mxCell id="X4x291_GErJNzQLrtJfZ-9" style="edgeStyle=orthogonalEdgeStyle;rounded=0;orthogonalLoop=1;jettySize=auto;html=1;exitX=0;exitY=0.75;exitDx=0;exitDy=0;entryX=1;entryY=0.75;entryDx=0;entryDy=0;" edge="1" parent="1" source="X4x291_GErJNzQLrtJfZ-2" target="X4x291_GErJNzQLrtJfZ-1">
          <mxGeometry relative="1" as="geometry" />
        </mxCell>
        <mxCell id="X4x291_GErJNzQLrtJfZ-2" value="Microxrceagent&lt;br&gt;on Raspberry" style="whiteSpace=wrap;html=1;rounded=0;" vertex="1" parent="1">
          <mxGeometry x="365" y="310" width="120" height="60" as="geometry" />
        </mxCell>
        <mxCell id="X4x291_GErJNzQLrtJfZ-8" style="edgeStyle=orthogonalEdgeStyle;rounded=0;orthogonalLoop=1;jettySize=auto;html=1;exitX=0;exitY=0.75;exitDx=0;exitDy=0;entryX=1;entryY=0.75;entryDx=0;entryDy=0;" edge="1" parent="1" source="X4x291_GErJNzQLrtJfZ-4" target="X4x291_GErJNzQLrtJfZ-2">
          <mxGeometry relative="1" as="geometry" />
        </mxCell>
        <mxCell id="X4x291_GErJNzQLrtJfZ-4" value="Flight controller" style="whiteSpace=wrap;html=1;rounded=0;" vertex="1" parent="1">
          <mxGeometry x="560" y="310" width="120" height="60" as="geometry" />
        </mxCell>
        <mxCell id="X4x291_GErJNzQLrtJfZ-16" style="edgeStyle=orthogonalEdgeStyle;rounded=0;orthogonalLoop=1;jettySize=auto;html=1;exitX=1;exitY=0.5;exitDx=0;exitDy=0;entryX=0;entryY=0.5;entryDx=0;entryDy=0;" edge="1" parent="1" source="X4x291_GErJNzQLrtJfZ-12" target="X4x291_GErJNzQLrtJfZ-15">
          <mxGeometry relative="1" as="geometry" />
        </mxCell>
        <mxCell id="X4x291_GErJNzQLrtJfZ-20" value="UDP" style="edgeLabel;html=1;align=center;verticalAlign=middle;resizable=0;points=[];" vertex="1" connectable="0" parent="X4x291_GErJNzQLrtJfZ-16">
          <mxGeometry x="-0.2343" relative="1" as="geometry">
            <mxPoint x="11" as="offset" />
          </mxGeometry>
        </mxCell>
        <mxCell id="X4x291_GErJNzQLrtJfZ-12" value="Vicon Data" style="rounded=0;whiteSpace=wrap;html=1;" vertex="1" parent="1">
          <mxGeometry x="170" y="420" width="120" height="60" as="geometry" />
        </mxCell>
        <mxCell id="X4x291_GErJNzQLrtJfZ-18" value="" style="edgeStyle=orthogonalEdgeStyle;rounded=0;orthogonalLoop=1;jettySize=auto;html=1;entryX=0.5;entryY=1;entryDx=0;entryDy=0;" edge="1" parent="1" source="X4x291_GErJNzQLrtJfZ-15" target="X4x291_GErJNzQLrtJfZ-1">
          <mxGeometry relative="1" as="geometry">
            <mxPoint x="560" y="450" as="targetPoint" />
            <Array as="points">
              <mxPoint x="425" y="400" />
              <mxPoint x="230" y="400" />
            </Array>
          </mxGeometry>
        </mxCell>
        <mxCell id="X4x291_GErJNzQLrtJfZ-21" value="Vicon ROS topic" style="edgeLabel;html=1;align=center;verticalAlign=middle;resizable=0;points=[];" vertex="1" connectable="0" parent="X4x291_GErJNzQLrtJfZ-18">
          <mxGeometry x="0.0971" y="1" relative="1" as="geometry">
            <mxPoint x="19" y="-1" as="offset" />
          </mxGeometry>
        </mxCell>
        <mxCell id="X4x291_GErJNzQLrtJfZ-15" value="Operation PC" style="rounded=0;whiteSpace=wrap;html=1;" vertex="1" parent="1">
          <mxGeometry x="365" y="420" width="120" height="60" as="geometry" />
        </mxCell>
      </root>
    </mxGraphModel>
  </diagram>
</mxfile>
